<?xml version="1.0" encoding="UTF-8"?><svg id="Layer_1" xmlns="http://www.w3.org/2000/svg" viewBox="0 0 249.2 253.07"><defs><style>.cls-1{fill:#fff;}</style></defs><path d="M14.22,211.59C-6.14,156.17-5.09,92.71,20.34,39.45c38.67-72.37,65.74,21.9,108.54,13.96,19.46-5.95,26.49-28.18,40.29-41.44C188.88-8.83,206.2-.02,217.09,19.31c20.99,39.67,34.05,107.01,31.87,151.76-.93,12.98-5.68,25.47-13.52,35.8-37.48,44.15-104.2,51.72-158.57,43.04-28.09-4.17-51.43-8.49-62.58-38.12l-.08-.2Z"/><path class="cls-1" d="M128.88,193.91c-5.71,11.52-7.71,27-20.38,33.18-9.7,4.5-20.42,3-30.57,1.92-19.58-2.09-37.06-10.5-44.82-29.82-12.69-35.01-14.3-74.65-4.06-110.45,3.04-10.74,5.96-21.36,9.91-31.86,3.57-9.69,10.59-20.44,22.16-15.05,6.3,2.88,11.44,8.17,16.71,12.65,9.43,8.26,20.34,16.62,31.02,22.49,20.87,11.65,33.4,6.24,46.32-12.7,6.76-9.44,12.72-18.74,19.5-28.25,3.82-5.37,10.71-14.04,17.41-12.02,12.42,4.36,17.94,38.64,21.64,51.65,2.43,10.2,6.03,21.39,7.96,31.49,1.26,7.14-3.4,6.15-8.84,5.52-4.95-.74-10.73-.72-14.64,2.8-11.61,10.77-6.43,34.42,11.06,35.37,4.67.3,8.89-1.23,11.57-.8,5.19.95,4.39,8.78,4.53,12.96-.17,5.22-.99,10.77-2.67,15.74-3.73,11.47-15.27,25.11-26.88,24.66-4.7-.21-8.87-2.5-12.61-5.32-8.52-6.35-14.78-15.99-22.84-22.69-16.21-13.12-25.63,4.64-31.42,18.35l-.08.19Z"/><path d="M89.52,159.11c-6.17,7.97-15.91,7.77-24.48,4.38-6.94-2.74-13.71-11.41-12.04-20.98,1.28-7.3,11.25-13.04,17.67-14.1,8.76-1.44,18.4,1.84,22.58,10.18,2.81,5.61.29,15.31-3.74,20.51Z"/><path class="cls-1" d="M172.9,217.32c5.47,6.92-21.01,11.51-34.45,11.59-2.87.02-4.78-2.97-3.58-5.57,7.83-17.01,13.56-35.25,20.56-27.18"/></svg>